<svg xmlns="http://www.w3.org/2000/svg" width="48" height="48" fill="none"><filter id="a" width="48" height="54" x="0" y="-3" color-interpolation-filters="sRGB" filterUnits="userSpaceOnUse"><feFlood flood-opacity="0" result="BackgroundImageFix"/><feBlend in="SourceGraphic" in2="BackgroundImageFix" result="shape"/><feColorMatrix in="SourceAlpha" result="hardAlpha" values="0 0 0 0 0 0 0 0 0 0 0 0 0 0 0 0 0 0 127 0"/><feOffset dy="-3"/><feGaussianBlur stdDeviation="1.5"/><feComposite in2="hardAlpha" k2="-1" k3="1" operator="arithmetic"/><feColorMatrix values="0 0 0 0 0 0 0 0 0 0 0 0 0 0 0 0 0 0 0.1 0"/><feBlend in2="shape" result="effect1_innerShadow_3051_46967"/><feColorMatrix in="SourceAlpha" result="hardAlpha" values="0 0 0 0 0 0 0 0 0 0 0 0 0 0 0 0 0 0 127 0"/><feOffset dy="3"/><feGaussianBlur stdDeviation="1.5"/><feComposite in2="hardAlpha" k2="-1" k3="1" operator="arithmetic"/><feColorMatrix values="0 0 0 0 1 0 0 0 0 1 0 0 0 0 1 0 0 0 0.1 0"/><feBlend in2="effect1_innerShadow_3051_46967" result="effect2_innerShadow_3051_46967"/><feColorMatrix in="SourceAlpha" result="hardAlpha" values="0 0 0 0 0 0 0 0 0 0 0 0 0 0 0 0 0 0 127 0"/><feMorphology in="SourceAlpha" radius="1" result="effect3_innerShadow_3051_46967"/><feOffset/><feComposite in2="hardAlpha" k2="-1" k3="1" operator="arithmetic"/><feColorMatrix values="0 0 0 0 0.0627451 0 0 0 0 0.0941176 0 0 0 0 0.156863 0 0 0 0.24 0"/><feBlend in2="effect2_innerShadow_3051_46967" result="effect3_innerShadow_3051_46967"/></filter><filter id="d" width="36" height="42" x="6" y="5.25" color-interpolation-filters="sRGB" filterUnits="userSpaceOnUse"><feFlood flood-opacity="0" result="BackgroundImageFix"/><feColorMatrix in="SourceAlpha" result="hardAlpha" values="0 0 0 0 0 0 0 0 0 0 0 0 0 0 0 0 0 0 127 0"/><feMorphology in="SourceAlpha" radius="1.5" result="effect1_dropShadow_3051_46967"/><feOffset dy="2.25"/><feGaussianBlur stdDeviation="2.25"/><feComposite in2="hardAlpha" operator="out"/><feColorMatrix values="0 0 0 0 0.141176 0 0 0 0 0.141176 0 0 0 0 0.141176 0 0 0 0.1 0"/><feBlend in2="BackgroundImageFix" result="effect1_dropShadow_3051_46967"/><feBlend in="SourceGraphic" in2="effect1_dropShadow_3051_46967" result="shape"/></filter><linearGradient id="c" x1="24" x2="26" y1="0" y2="48" gradientUnits="userSpaceOnUse"><stop offset="0" stop-color="#fff" stop-opacity="0"/><stop offset="1" stop-color="#fff" stop-opacity=".12"/></linearGradient><linearGradient id="e" x1="24" x2="24" y1="0" y2="48" gradientUnits="userSpaceOnUse"><stop offset="0" stop-color="#fff" stop-opacity=".12"/><stop offset="1" stop-color="#fff" stop-opacity="0"/></linearGradient><clipPath id="b"><rect width="48" height="48" rx="12"/></clipPath><g filter="url(#a)"><g clip-path="url(#b)"><rect width="48" height="48" fill="#155eef" rx="12" style="fill:#a00"/><path fill="url(#c)" d="M0 0h48v48H0z"/><g fill="#fff" filter="url(#d)"><path d="M9 9h7.5v7.5H9z"/><path d="M24 9h7.5v7.5H24zm-7.5 7.5H24V24h-7.5z" opacity=".6"/><path d="M24 16.5h7.5V24H24z" opacity=".45"/><path d="M31.5 16.5H39V24h-7.5z" opacity=".3"/><path d="M9 24h7.5v7.5H9z" opacity=".6"/><path d="M16.5 24H24v7.5h-7.5z" opacity=".45"/><path d="M24 24h7.5v7.5H24z" opacity=".3"/><path d="M31.5 24H39v7.5h-7.5z" opacity=".15"/><path d="M16.5 31.5H24V39h-7.5z" opacity=".3"/><path d="M24 31.5h7.5V39H24z" opacity=".15"/></g></g><rect width="46" height="46" x="1" y="1" stroke="url(#e)" stroke-width="2" rx="11"/></g></svg>