<svg xmlns="http://www.w3.org/2000/svg" width="40" height="40" fill="none"><g fill="#155eef" style="fill:#a00"><path d="M0 4h10v10H0Z" style="fill:#a00" transform="translate(0 -4)"/><path d="M20 4h10v10H20ZM10 14h10v10H10Z" opacity=".6" style="fill:#a00" transform="translate(0 -4)"/><path d="M20 14h10v10H20Z" opacity=".45" style="fill:#a00" transform="translate(0 -4)"/><path d="M30 14h10v10H30Z" opacity=".3" style="fill:#a00" transform="translate(0 -4)"/><path d="M0 24h10v10H0Z" opacity=".6" style="fill:#a00" transform="translate(0 -4)"/><path d="M10 24h10v10H10Z" opacity=".45" style="fill:#a00" transform="translate(0 -4)"/><path d="M20 24h10v10H20Z" opacity=".3" style="fill:#a00" transform="translate(0 -4)"/><path d="M30 24h10v10H30Z" opacity=".15" style="fill:#a00" transform="translate(0 -4)"/><path d="M10 34h10v10H10Z" opacity=".3" style="fill:#a00" transform="translate(0 -4)"/><path d="M20 34h10v10H20Z" opacity=".15" style="fill:#a00" transform="translate(0 -4)"/></g></svg>