<svg xmlns="http://www.w3.org/2000/svg" width="205.74" height="40"><g fill="#1a1a1a"><path d="M0 0h10v10H0z"/><path d="M20 0h10v10H20zM10 10h10v10H10z" opacity=".6"/><path d="M20 10h10v10H20z" opacity=".45"/><path d="M30 10h10v10H30z" opacity=".3"/><path d="M0 20h10v10H0z" opacity=".6"/><path d="M10 20h10v10H10z" opacity=".45"/><path d="M20 20h10v10H20z" opacity=".3"/><path d="M30 20h10v10H30z" opacity=".15"/><path d="M10 30h10v10H10z" opacity=".3"/><path d="M20 30h10v10H20z" opacity=".15"/></g><path d="M56.72 28.736q-3.072 0-4.896-1.728Q50 25.256 50 21.992v-3.984q0-3.264 1.824-4.992 1.824-1.752 4.896-1.752t4.728 1.68q1.68 1.68 1.68 4.608v.144h-2.832v-.216q0-1.584-.888-2.592-.864-1.032-2.688-1.032-1.776 0-2.808 1.104-1.008 1.08-1.008 3v4.08q0 1.896 1.008 3 1.032 1.104 2.808 1.104 1.824 0 2.688-1.008.888-1.032.888-2.616v-.408h2.832v.336q0 2.928-1.68 4.608-1.656 1.68-4.728 1.68m14.052 0q-3.12 0-4.992-1.728-1.848-1.752-1.848-5.016v-3.984q0-3.264 1.848-4.992 1.872-1.752 4.992-1.752 3.144 0 4.992 1.752 1.848 1.728 1.848 4.992v3.984q0 3.264-1.848 5.016-1.848 1.728-4.992 1.728m0-2.592q1.872 0 2.904-1.08 1.056-1.104 1.056-2.976v-4.176q0-1.872-1.056-2.952-1.032-1.104-2.904-1.104-1.848 0-2.904 1.104-1.032 1.08-1.032 2.952v4.176q0 1.872 1.032 2.976 1.056 1.08 2.904 1.08m7.14 2.256v-2.544h2.256V14.144h-2.256V11.6h6.84q3.36 0 5.136 1.704t1.776 5.112v3.168q0 3.408-1.776 5.112T84.752 28.4zm5.136-2.616h1.728q2.04 0 3.024-1.056t.984-3.048v-3.336q0-2.04-.984-3.072-.984-1.056-3.024-1.056h-1.728zm9.876 2.616V11.6h10.704v2.616h-7.8v4.416h7.128v2.616h-7.128v4.536h7.92V28.4zm11.868-4.896v-2.472h7.104v2.472zm8.768 4.896v-9.88h2.3v9.88zm1.14-11.14q-.62 0-1.08-.4-.44-.42-.44-1.1t.44-1.08q.46-.42 1.08-.42.66 0 1.08.42.44.4.44 1.08t-.44 1.1q-.42.4-1.08.4m2.58 11.14v-9.88h2.26v1.38h.34q.26-.56.94-1.06t2.06-.5q1.14 0 2.02.52t1.36 1.44q.5.92.5 2.18v5.92h-2.3v-5.74q0-1.2-.6-1.78-.58-.6-1.66-.6-1.22 0-1.92.82-.7.8-.7 2.3v5zm11.04-4.896v-2.472h7.104v2.472zm15.276 5.232q-3.072 0-4.896-1.728-1.824-1.752-1.824-5.016v-3.984q0-3.264 1.824-4.992 1.824-1.752 4.896-1.752t4.728 1.68q1.68 1.68 1.68 4.608v.144h-2.832v-.216q0-1.584-.888-2.592-.864-1.032-2.688-1.032-1.776 0-2.808 1.104-1.008 1.08-1.008 3v4.08q0 1.896 1.008 3 1.032 1.104 2.808 1.104 1.824 0 2.688-1.008.888-1.032.888-2.616v-.408h2.832v.336q0 2.928-1.68 4.608-1.656 1.68-4.728 1.68m7.62-.336V11.6h2.904v7.056h6.624V11.6h2.904v16.8h-2.904v-7.104h-6.624V28.4zm13.068 0 4.608-16.8h5.016l4.608 16.8h-2.976l-1.008-3.84h-6.264l-1.008 3.84zm4.656-6.48h4.92l-2.256-8.52h-.408zm16.476 6.816q-3.12 0-4.992-1.728-1.848-1.752-1.848-5.016v-3.984q0-3.264 1.848-4.992 1.872-1.752 4.992-1.752 3.144 0 4.992 1.752 1.848 1.728 1.848 4.992v3.984q0 3.264-1.848 5.016-1.848 1.728-4.992 1.728m0-2.592q1.872 0 2.904-1.08 1.056-1.104 1.056-2.976v-4.176q0-1.872-1.056-2.952-1.032-1.104-2.904-1.104-1.848 0-2.904 1.104-1.032 1.08-1.032 2.952v4.176q0 1.872 1.032 2.976 1.056 1.08 2.904 1.08m14.028 2.592q-1.92 0-3.408-.672-1.464-.696-2.304-1.992t-.84-3.168v-.624h2.856v.624q0 1.656 1.008 2.472t2.688.816q1.704 0 2.568-.696t.864-1.8q0-.744-.408-1.2-.408-.48-1.2-.768-.768-.288-1.872-.552l-.72-.144q-1.656-.384-2.88-.96-1.2-.6-1.848-1.536t-.648-2.448.72-2.592 2.04-1.656 3.096-.576 3.168.6 2.184 1.8q.816 1.2.816 3v.792h-2.856v-.792q0-1.032-.408-1.656t-1.152-.912-1.752-.288q-1.488 0-2.256.576t-.768 1.632q0 .672.336 1.152.36.456 1.032.768.696.288 1.728.504l.72.168q1.728.384 3.024.984 1.296.576 2.016 1.536.744.96.744 2.496 0 1.512-.792 2.664-.768 1.152-2.184 1.8-1.392.648-3.312.648" aria-label="CODE-in-CHAOS"/></svg>