<svg xmlns="http://www.w3.org/2000/svg" width="205.736" height="40" fill="none"><g fill="#155eef" style="fill:#a00"><path d="M0 4h10v10H0Z" style="fill:#a00" transform="translate(0 -4)"/><path d="M20 4h10v10H20ZM10 14h10v10H10Z" opacity=".6" style="fill:#a00" transform="translate(0 -4)"/><path d="M20 14h10v10H20Z" opacity=".45" style="fill:#a00" transform="translate(0 -4)"/><path d="M30 14h10v10H30Z" opacity=".3" style="fill:#a00" transform="translate(0 -4)"/><path d="M0 24h10v10H0Z" opacity=".6" style="fill:#a00" transform="translate(0 -4)"/><path d="M10 24h10v10H10Z" opacity=".45" style="fill:#a00" transform="translate(0 -4)"/><path d="M20 24h10v10H20Z" opacity=".3" style="fill:#a00" transform="translate(0 -4)"/><path d="M30 24h10v10H30Z" opacity=".15" style="fill:#a00" transform="translate(0 -4)"/><path d="M10 34h10v10H10Z" opacity=".3" style="fill:#a00" transform="translate(0 -4)"/><path d="M20 34h10v10H20Z" opacity=".15" style="fill:#a00" transform="translate(0 -4)"/></g><text xml:space="preserve" x="48.752" y="28.4" style="font-style:normal;font-variant:normal;font-weight:400;font-stretch:normal;font-size:24px;font-family:&quot;Space Grotesk&quot;;-inkscape-font-specification:&quot;Space Grotesk&quot;;text-align:start;letter-spacing:-1.5px;writing-mode:lr-tb;direction:ltr;text-anchor:start;fill:#000"><tspan x="48.752" y="28.4" style="font-style:normal;font-variant:normal;font-weight:600;font-stretch:normal;font-size:24px;font-family:&quot;Space Grotesk&quot;;-inkscape-font-specification:&quot;Space Grotesk Semi-Bold&quot;;letter-spacing:-1.5px">CODE-<tspan style="font-style:normal;font-variant:normal;font-weight:600;font-stretch:normal;font-size:20px;font-family:&quot;Space Grotesk&quot;;-inkscape-font-specification:&quot;Space Grotesk Semi-Bold&quot;;letter-spacing:-1.5px">in</tspan>-CHAOS</tspan></text></svg>